<?xml version="1.0" encoding="UTF-8"?>
<svg width="1558px" height="274px" viewBox="0 0 1558 274" version="1.1" xmlns="http://www.w3.org/2000/svg" xmlns:xlink="http://www.w3.org/1999/xlink">
    <title>light</title>
    <defs>
        <path d="M0,0 L1558,0 L1558,274 L0,274 L0,0 Z" id="path-1"></path>
    </defs>
    <g id="light" stroke="none" fill="none" xlink:href="#path-1">
        <g id="Group" stroke-width="1" fill-rule="evenodd" transform="translate(29, 35)">
            <path d="M173.728674,173.625697 C173.728674,173.625697 148.541404,203.162837 101.934551,203.986441 C55.3276984,204.810045 -1.68754671,168.093747 0.0382496778,98.8661587 C1.80855203,36.0230528 53.9558797,-0.280410773 101.934551,0 C149.913222,0.283673369 179.939016,23.1693728 188.911625,50.5658858 C197.884235,77.9623988 176.213142,108.983927 139.597154,103.037489" id="Path" stroke="#14B8A6" stroke-width="15"></path>
            <path d="M81.5878733,72.7333595 C81.5878733,72.7333595 142.146207,58.1425897 142.146207,100.746646 C142.146207,143.350702 77.9334161,127.350962 77.9334161,127.350962" id="Path" stroke="#14B8A6" stroke-width="15"></path>
            <path d="M185.081835,188.130511 C198.843758,188.130511 210,176.994762 210,163.25812 C210,149.521477 198.843758,138.385728 185.081835,138.385728 C171.319913,138.385728 160.16367,149.521477 160.16367,163.25812 C160.16367,176.994762 171.319913,188.130511 185.081835,188.130511 Z M75.4495693,145.416944 C85.7274245,145.416944 94.0592724,137.100402 94.0592724,126.841426 C94.0592724,116.582451 85.7274245,108.265908 75.4495693,108.265908 C65.171714,108.265908 56.8398661,116.582451 56.8398661,126.841426 C56.8398661,137.100402 65.171714,145.416944 75.4495693,145.416944 Z M75.4495693,89.5176522 C85.7274245,89.5176522 94.0592724,81.2011094 94.0592724,70.9421341 C94.0592724,60.6831587 85.7274245,52.366616 75.4495693,52.366616 C65.171714,52.366616 56.8398661,60.6831587 56.8398661,70.9421341 C56.8398661,81.2011094 65.171714,89.5176522 75.4495693,89.5176522 Z" id="Combined-Shape" fill="#14B8A6"></path>
        </g>
        <text id="ClínicaWork" font-family="Helvetica" font-size="230" font-weight="normal" fill="#000000">
            <tspan x="279" y="223">ClínicaWork</tspan>
        </text>
    </g>
</svg>